<svg width="24" height="24" viewBox="0 0 24 24" fill="none" xmlns="http://www.w3.org/2000/svg">
<path fill-rule="evenodd" clip-rule="evenodd" d="M14.903 10.6951C14.5738 11.0243 14.0737 10.5242 14.4029 10.195L16.1931 8.40479L14.4029 6.6146C14.0737 6.28537 14.5738 5.78526 14.903 6.11449L16.9438 8.1552C17.082 8.29342 17.082 8.51708 16.9438 8.65531L14.903 10.6951ZM12.6166 4.73713C12.7366 4.28791 13.42 4.47029 13.2991 4.9195L11.3822 12.0715C11.2622 12.5207 10.5788 12.3383 10.6997 11.8891L12.6166 4.73713ZM10.8024 18.3827C10.8024 20.0183 10.9685 20.5204 9.61316 21.1184C9.28007 21.2653 8.94028 21.415 8.82798 21.871H15.1717C14.901 20.7786 13.1972 21.3699 13.1972 19.4972V18.3837L10.8024 18.3827ZM23.4403 15.3878H0.558718V16.6135C0.558718 17.1991 1.03769 17.6752 1.62034 17.6752H22.3796C22.9641 17.6752 23.4412 17.1981 23.4412 16.6135L23.4403 15.3878ZM0.558718 14.6803H23.4413L23.4403 3.19053C23.4403 2.60788 22.9623 2.12891 22.3787 2.12891H1.62022C1.03661 2.12891 0.558594 2.60692 0.558594 3.19053L0.558718 14.6803ZM9.59591 10.1948C9.92514 10.524 9.42505 11.0241 9.0958 10.6949L7.05509 8.6542C6.91687 8.51598 6.91687 8.29232 7.05509 8.15409L9.0958 6.11338C9.42503 5.78416 9.92514 6.28424 9.59591 6.61349L7.80572 8.40368L9.59591 10.1948Z" fill="#062013"/>
<rect x="6.39355" y="4.19092" width="11.3989" height="8.42725" fill="#062013"/>
</svg>
