<svg width="24" height="24" viewBox="0 0 24 24" fill="none" xmlns="http://www.w3.org/2000/svg">
<path d="M8.62517 18.2668H6.23792C5.86929 18.2668 5.53336 18.1162 5.28957 17.8724C5.0448 17.6276 4.89417 17.2907 4.89417 16.9231V6.62009H3.64159V8.91319C3.64159 9.15796 3.4434 9.35714 3.19764 9.35714H0.904541V21.5549C0.904541 21.6808 0.95607 21.7947 1.03832 21.877C1.12057 21.9592 1.23552 22.0107 1.36038 22.0107H14.0308C14.1566 22.0107 14.2706 21.9592 14.3528 21.877C14.4361 21.7957 14.4866 21.6817 14.4866 21.5549V21.215H9.97072C9.60208 21.215 9.26714 21.0644 9.02137 20.8196C8.7766 20.5749 8.62597 20.2389 8.62597 19.8713V18.2689L8.62517 18.2668ZM6.23792 17.3789H8.62517V7.2284C8.62517 7.09958 8.67967 6.98463 8.76687 6.90338L11.4811 4.18919C11.5623 4.10198 11.6783 4.04748 11.8061 4.04748H19.3632V2.44509C19.3632 2.31924 19.3126 2.20429 19.2304 2.12304C19.1471 2.0398 19.0322 1.98926 18.9073 1.98926H8.51911V4.28236C8.51911 4.52712 8.32092 4.72631 8.07516 4.72631H5.78206V16.9241C5.78206 17.0499 5.8326 17.1649 5.91485 17.2471C5.9971 17.3284 6.11205 17.3799 6.2379 17.3799L6.23792 17.3789ZM7.63023 2.61562L6.40838 3.83747H7.63023V2.61562ZM2.75184 7.24642L1.52998 8.46827H2.75184V7.24642ZM22.6386 4.93548H12.2504V7.22858C12.2504 7.47335 12.0522 7.67253 11.8064 7.67253H9.51332V19.8703C9.51332 19.9962 9.56386 20.1111 9.64611 20.1924C9.72935 20.2756 9.84332 20.3261 9.97015 20.3261H22.6395C22.7654 20.3261 22.8803 20.2756 22.9616 20.1933C23.0448 20.1101 23.0954 19.9961 23.0954 19.8703V5.39138C23.0954 5.26553 23.0448 5.15058 22.9626 5.06933C22.8793 4.98609 22.7644 4.93555 22.6395 4.93555L22.6386 4.93548ZM11.3615 5.56277L10.1396 6.78463H11.3615V5.56277ZM12.5556 13.6569C12.3831 13.4835 12.3831 13.203 12.5575 13.0316C12.731 12.8592 13.0114 12.8592 13.1828 13.0336L15.1003 14.9521L19.3854 9.37302C19.534 9.17879 19.8125 9.14213 20.0067 9.28978C20.2009 9.43843 20.2376 9.71689 20.0899 9.91111L15.4969 15.8915L15.4573 15.9361C15.2839 16.1085 15.0034 16.1085 14.832 15.9341L12.5567 13.6579L12.5556 13.6569Z" fill="#062013"/>
</svg>
