<svg width="24" height="24" viewBox="0 0 24 24" fill="none" xmlns="http://www.w3.org/2000/svg">
<path d="M23.0587 1.63672H22.3636H1.63655H0.941428C0.846639 1.63672 0.783447 1.69991 0.783447 1.7947V2.48981V5.93379V6.6289C0.783447 6.72369 0.846639 6.78688 0.941428 6.78688H1.63655H22.3636H23.0587C23.1535 6.78688 23.2167 6.72369 23.2167 6.6289V5.93379V2.52141V1.7947C23.2167 1.69991 23.1535 1.63672 23.0587 1.63672Z" fill="#062013"/>
<path d="M22.2057 7.70312H21.5106H2.52131H1.82619C1.73141 7.70312 1.66821 7.76632 1.66821 7.86111V8.55622V21.5106V22.2057C1.66821 22.3005 1.73141 22.3637 1.82619 22.3637H2.52131H21.5106H22.2057C22.3005 22.3637 22.3637 22.3005 22.3637 22.2057V21.5106V8.55622V7.86111C22.3637 7.76632 22.3005 7.70312 22.2057 7.70312ZM16.5184 12.095C16.2972 12.3162 15.9812 12.4741 15.6337 12.4741H8.36659C7.67147 12.4741 7.10274 11.9054 7.10274 11.2103C7.10274 10.8627 7.26073 10.5468 7.4819 10.3256C7.70307 10.1044 8.01903 9.94645 8.36659 9.94645H15.6337C16.3288 9.94645 16.8975 10.5152 16.8975 11.2103C16.8975 11.5579 16.7395 11.8738 16.5184 12.095Z" fill="#062013"/>
</svg>
