<svg width="24" height="24" viewBox="0 0 24 24" fill="none" xmlns="http://www.w3.org/2000/svg">
<g clip-path="url(#clip0_192_42)">
<mask id="mask0_192_42" style="mask-type:luminance" maskUnits="userSpaceOnUse" x="0" y="0" width="24" height="24">
<path d="M23.0404 9.897H12.2629V14.3657H18.4665C17.8882 17.2047 15.4698 18.8344 12.2629 18.8344C8.4776 18.8344 5.42836 15.7852 5.42836 11.9999C5.42836 8.21466 8.4776 5.16542 12.2629 5.16542C13.8926 5.16542 15.3647 5.74374 16.5213 6.69005L19.886 3.32536C17.8356 1.53787 15.207 0.433838 12.2629 0.433838C5.84894 0.433838 0.696777 5.586 0.696777 11.9999C0.696777 18.4138 5.84894 23.566 12.2629 23.566C18.0459 23.566 23.3032 19.3602 23.3032 11.9999C23.3032 11.3165 23.1981 10.5805 23.0404 9.897Z" fill="white"/>
</mask>
<g mask="url(#mask0_192_42)">
<path d="M-0.354736 18.8343V5.16528L8.5827 11.9998L-0.354736 18.8343Z" fill="#FBBC05"/>
</g>
<mask id="mask1_192_42" style="mask-type:luminance" maskUnits="userSpaceOnUse" x="0" y="0" width="24" height="24">
<path d="M23.0404 9.897H12.2629V14.3657H18.4665C17.8882 17.2047 15.4698 18.8344 12.2629 18.8344C8.4776 18.8344 5.42836 15.7852 5.42836 11.9999C5.42836 8.21466 8.4776 5.16542 12.2629 5.16542C13.8926 5.16542 15.3647 5.74374 16.5213 6.69005L19.886 3.32536C17.8356 1.53787 15.207 0.433838 12.2629 0.433838C5.84894 0.433838 0.696777 5.586 0.696777 11.9999C0.696777 18.4138 5.84894 23.566 12.2629 23.566C18.0459 23.566 23.3032 19.3602 23.3032 11.9999C23.3032 11.3165 23.1981 10.5805 23.0404 9.897Z" fill="white"/>
</mask>
<g mask="url(#mask1_192_42)">
<path d="M-0.354736 5.16537L8.5827 11.9999L12.2628 8.79293L24.8804 6.74256V-0.617676H-0.354736V5.16537Z" fill="#EA4335"/>
</g>
<mask id="mask2_192_42" style="mask-type:luminance" maskUnits="userSpaceOnUse" x="0" y="0" width="24" height="24">
<path d="M23.0404 9.897H12.2629V14.3657H18.4665C17.8882 17.2047 15.4698 18.8344 12.2629 18.8344C8.4776 18.8344 5.42836 15.7852 5.42836 11.9999C5.42836 8.21466 8.4776 5.16542 12.2629 5.16542C13.8926 5.16542 15.3647 5.74374 16.5213 6.69005L19.886 3.32536C17.8356 1.53787 15.207 0.433838 12.2629 0.433838C5.84894 0.433838 0.696777 5.586 0.696777 11.9999C0.696777 18.4138 5.84894 23.566 12.2629 23.566C18.0459 23.566 23.3032 19.3602 23.3032 11.9999C23.3032 11.3165 23.1981 10.5805 23.0404 9.897Z" fill="white"/>
</mask>
<g mask="url(#mask2_192_42)">
<path d="M-0.354736 18.8344L15.4172 6.74256L19.5705 7.26829L24.8804 -0.617676V24.6174H-0.354736V18.8344Z" fill="#34A853"/>
</g>
<mask id="mask3_192_42" style="mask-type:luminance" maskUnits="userSpaceOnUse" x="0" y="0" width="24" height="24">
<path d="M23.0404 9.897H12.2629V14.3657H18.4665C17.8882 17.2047 15.4698 18.8344 12.2629 18.8344C8.4776 18.8344 5.42836 15.7852 5.42836 11.9999C5.42836 8.21466 8.4776 5.16542 12.2629 5.16542C13.8926 5.16542 15.3647 5.74374 16.5213 6.69005L19.886 3.32536C17.8356 1.53787 15.207 0.433838 12.2629 0.433838C5.84894 0.433838 0.696777 5.586 0.696777 11.9999C0.696777 18.4138 5.84894 23.566 12.2629 23.566C18.0459 23.566 23.3032 19.3602 23.3032 11.9999C23.3032 11.3165 23.1981 10.5805 23.0404 9.897Z" fill="white"/>
</mask>
<g mask="url(#mask3_192_42)">
<path d="M24.8806 24.6173L8.58291 11.9998L6.47998 10.4226L24.8806 5.16528V24.6173Z" fill="#4285F4"/>
</g>
</g>
<defs>
<clipPath id="clip0_192_42">
<rect width="24" height="24" fill="white"/>
</clipPath>
</defs>
</svg>
