<svg width="24" height="25" viewBox="0 0 24 25" fill="none" xmlns="http://www.w3.org/2000/svg">
<path d="M15.4148 7.99805C15.1254 7.99821 14.845 8.09872 14.6213 8.28245C14.3977 8.46619 14.2447 8.72179 14.1883 9.00569C14.132 9.2896 14.1759 9.58425 14.3124 9.83944C14.449 10.0946 14.6698 10.2946 14.9373 10.4052C15.2048 10.5159 15.5023 10.5303 15.7792 10.4462C16.0562 10.3621 16.2954 10.1845 16.4561 9.94377C16.6168 9.70304 16.689 9.41404 16.6605 9.12601C16.6321 8.83797 16.5046 8.56873 16.2998 8.36414C16.1837 8.2478 16.0458 8.15557 15.8939 8.09274C15.742 8.02991 15.5792 7.99773 15.4148 7.99805Z" fill="white"/>
<path d="M22.38 2.99489C22.3798 2.9935 22.3798 2.99207 22.38 2.99068C22.3404 2.81692 22.253 2.65769 22.1276 2.53097C22.0023 2.40425 21.8441 2.31506 21.6708 2.27349C20.2739 1.93271 18.0764 2.29599 15.6413 3.27099C13.1869 4.25536 10.8872 5.70849 9.33282 7.26567C8.83464 7.76128 8.37179 8.29117 7.94767 8.85146C6.90095 8.80458 5.97892 8.95364 5.2022 9.29255C2.49563 10.4836 1.72267 13.5319 1.51688 14.7835C1.48711 14.9613 1.49877 15.1436 1.55096 15.3162C1.60314 15.4888 1.69445 15.647 1.81778 15.7786C1.9411 15.9101 2.09312 16.0114 2.26199 16.0746C2.43086 16.1378 2.61204 16.1611 2.79142 16.1429H2.79751L5.81251 15.8138C5.81626 15.8522 5.82048 15.8874 5.82376 15.9197C5.86248 16.2871 6.02633 16.63 6.28782 16.891L7.75923 18.3633C8.01979 18.6252 8.36263 18.7892 8.73001 18.8279L8.83079 18.8386L8.50267 21.8499V21.856C8.4859 22.0182 8.50315 22.1821 8.55333 22.3372C8.60351 22.4923 8.68551 22.6353 8.79408 22.7569C8.90266 22.8785 9.03542 22.9762 9.18388 23.0436C9.33234 23.111 9.49323 23.1467 9.65626 23.1483C9.72143 23.1484 9.7865 23.1431 9.85079 23.1324C11.1094 22.9299 14.1563 22.1663 15.3441 19.4452C15.6802 18.6736 15.8288 17.7554 15.787 16.7105C16.3499 16.2873 16.8817 15.8244 17.3784 15.3254C18.9455 13.7663 20.4033 11.4854 21.3774 9.06661C22.3472 6.65911 22.7124 4.44521 22.38 2.99489ZM17.3616 11.1924C16.9764 11.578 16.4856 11.8406 15.9511 11.9471C15.4166 12.0537 14.8626 11.9993 14.359 11.7909C13.8555 11.5824 13.4251 11.2293 13.1222 10.7762C12.8194 10.3232 12.6577 9.79042 12.6577 9.24544C12.6577 8.70046 12.8194 8.16773 13.1222 7.71463C13.4251 7.26154 13.8555 6.90845 14.359 6.70002C14.8626 6.4916 15.4166 6.43721 15.9511 6.54374C16.4856 6.65027 16.9764 6.91293 17.3616 7.29849C17.6197 7.55277 17.8247 7.85585 17.9647 8.1901C18.1046 8.52434 18.1767 8.88308 18.1767 9.24544C18.1767 9.6078 18.1046 9.96654 17.9647 10.3008C17.8247 10.635 17.6197 10.9381 17.3616 11.1924Z" fill="white"/>
<path d="M7.59047 18.7627C7.40909 18.7402 7.22573 18.7847 7.07485 18.8879C6.77531 19.0927 6.47438 19.2952 6.17063 19.4926C5.5561 19.892 4.8211 19.1907 5.18625 18.5551L5.75578 17.5707C5.83721 17.4516 5.88255 17.3115 5.88636 17.1673C5.89018 17.0231 5.85231 16.8808 5.77731 16.7575C5.7023 16.6343 5.59333 16.5353 5.46347 16.4724C5.3336 16.4095 5.18836 16.3855 5.04516 16.4031C4.41305 16.483 3.82549 16.7709 3.375 17.2215C3.20344 17.3935 2.68172 17.9157 2.40094 19.9056C2.32102 20.4771 2.27064 21.0524 2.25 21.6292C2.24744 21.7293 2.26494 21.8288 2.30148 21.9221C2.33802 22.0153 2.39286 22.1003 2.46276 22.172C2.53266 22.2436 2.61621 22.3006 2.70848 22.3395C2.80075 22.3784 2.89987 22.3984 3 22.3984H3.01875C3.59594 22.3779 4.1717 22.3279 4.74375 22.2484C6.73453 21.9671 7.25672 21.4449 7.42828 21.2734C7.88092 20.8227 8.16815 20.2324 8.24344 19.5981C8.26754 19.4007 8.2123 19.2019 8.08986 19.0452C7.96742 18.8886 7.7878 18.787 7.59047 18.7627Z" fill="white"/>
</svg>
