<svg width="20" height="21" viewBox="0 0 20 21" fill="none" xmlns="http://www.w3.org/2000/svg">
<path d="M10 11.8149L12.4167 14.2316C12.5695 14.3844 12.7639 14.4608 13 14.4608C13.2361 14.4608 13.4306 14.3844 13.5834 14.2316C13.7361 14.0788 13.8125 13.8844 13.8125 13.6483C13.8125 13.4122 13.7361 13.2177 13.5834 13.0649L11.1667 10.6483L13.5834 8.23161C13.7361 8.07883 13.8125 7.88439 13.8125 7.64827C13.8125 7.41216 13.7361 7.21772 13.5834 7.06494C13.4306 6.91216 13.2361 6.83578 13 6.83578C12.7639 6.83578 12.5695 6.91216 12.4167 7.06494L10 9.48161L7.58336 7.06494C7.43058 6.91216 7.23613 6.83578 7.00002 6.83578C6.76391 6.83578 6.56947 6.91216 6.41669 7.06494C6.26391 7.21772 6.18752 7.41216 6.18752 7.64827C6.18752 7.88439 6.26391 8.07883 6.41669 8.23161L8.83335 10.6483L6.41669 13.0649C6.26391 13.2177 6.18752 13.4122 6.18752 13.6483C6.18752 13.8844 6.26391 14.0788 6.41669 14.2316C6.56947 14.3844 6.76391 14.4608 7.00002 14.4608C7.23613 14.4608 7.43058 14.3844 7.58336 14.2316L10 11.8149ZM10 18.9816C8.84724 18.9816 7.76391 18.7627 6.75002 18.3249C5.73613 17.8872 4.85419 17.2936 4.10419 16.5441C3.35419 15.7947 2.76058 14.9127 2.32335 13.8983C1.88613 12.8838 1.66724 11.8005 1.66669 10.6483C1.66613 9.49605 1.88502 8.41272 2.32335 7.39828C2.76169 6.38383 3.3553 5.50189 4.10419 4.75244C4.85308 4.003 5.73502 3.40939 6.75002 2.97161C7.76502 2.53383 8.84835 2.31494 10 2.31494C11.1517 2.31494 12.235 2.53383 13.25 2.97161C14.265 3.40939 15.147 4.003 15.8959 4.75244C16.6447 5.50189 17.2386 6.38383 17.6775 7.39828C18.1164 8.41272 18.335 9.49605 18.3334 10.6483C18.3317 11.8005 18.1128 12.8838 17.6767 13.8983C17.2406 14.9127 16.647 15.7947 15.8959 16.5441C15.1447 17.2936 14.2628 17.8874 13.25 18.3258C12.2372 18.7641 11.1539 18.9827 10 18.9816Z" fill="#02150E" fill-opacity="0.2"/>
</svg>
