<svg width="16" height="16" viewBox="0 0 16 16" fill="none" xmlns="http://www.w3.org/2000/svg">
<path d="M11.8274 5.70359V4.17263C11.8274 2.02928 10.1433 0.345215 7.99996 0.345215C5.85661 0.345215 4.17255 2.02928 4.17255 4.17263V5.70359C2.87123 5.70359 1.8761 6.69872 1.8761 8.00004V13.3584C1.8761 14.6597 2.87123 15.6549 4.17255 15.6549H11.8274C13.1287 15.6549 14.1238 14.6597 14.1238 13.3584V8.00004C14.1238 6.69872 13.1287 5.70359 11.8274 5.70359ZM5.70351 4.17263C5.70351 2.87131 6.69864 1.87618 7.99996 1.87618C9.30128 1.87618 10.2964 2.87131 10.2964 4.17263V5.70359H5.70351V4.17263ZM8.84199 10.6792L8.76544 10.7558V11.8275C8.76544 12.2867 8.45925 12.5929 7.99996 12.5929C7.54067 12.5929 7.23448 12.2867 7.23448 11.8275V10.7558C6.77519 10.2965 6.69864 9.60755 7.15793 9.14826C7.61722 8.68897 8.30615 8.61243 8.76544 9.07172C9.22473 9.45446 9.30128 10.2199 8.84199 10.6792Z" fill="#062013"/>
</svg>
