<svg width="24" height="24" viewBox="0 0 24 24" fill="none" xmlns="http://www.w3.org/2000/svg">
<path d="M16.0254 6.31718H21.0263L15.7886 1.18359V6.08039C15.7886 6.14319 15.8135 6.20342 15.8579 6.24782C15.9023 6.29223 15.9626 6.31718 16.0254 6.31718Z" fill="#062013"/>
<path d="M16.0254 8.21152C15.4602 8.21152 14.9182 7.987 14.5185 7.58734C14.1188 7.18768 13.8943 6.64563 13.8943 6.08042V0.634277H5.36991C4.61631 0.634277 3.89357 0.933645 3.36069 1.46652C2.82781 1.9994 2.52844 2.72214 2.52844 3.47574V20.5245C2.52844 21.2782 2.82781 22.0009 3.36069 22.5338C3.89357 23.0666 4.61631 23.366 5.36991 23.366H18.6301C19.3837 23.366 20.1064 23.0666 20.6393 22.5338C21.1722 22.0009 21.4716 21.2782 21.4716 20.5245V8.21152H16.0254Z" fill="#062013"/>
</svg>
